<svg xmlns="http://www.w3.org/2000/svg" xmlns:xlink="http://www.w3.org/1999/xlink" version="1.1" x="0px" y="0px" viewBox="0 0 19 27.653750000000002" style="enable-background:new 0 0 19 22.123;" xml:space="preserve"><g><path d="M0.724,1.174C0.291,0.835-0.034,1.007,0.003,1.556l1.234,18.773c0.037,0.549,0.337,0.639,0.668,0.199l4.047-5.385   l3.41,6.449c0.256,0.486,0.865,0.673,1.352,0.416l0.883-0.467c0.487-0.257,0.674-0.865,0.418-1.351l-3.409-6.448l6.727-0.313   c0.55-0.026,0.645-0.324,0.212-0.663L0.724,1.174z"/><polygon points="16,0 14,0 14,3 11,3 11,5 14,5 14,8 16,8 16,5 19,5 19,3 16,3  "/></g><text x="0" y="37.123000000000005" fill="#000000" font-size="5px" font-weight="bold" font-family="'Helvetica Neue', Helvetica, Arial-Unicode, Arial, Sans-serif">Created by Hea Poh Lin</text><text x="0" y="42.123000000000005" fill="#000000" font-size="5px" font-weight="bold" font-family="'Helvetica Neue', Helvetica, Arial-Unicode, Arial, Sans-serif">from the Noun Project</text></svg>